HIERARCHY
ROOT Hips
{
	OFFSET -0.001795 -0.223333 0.028219
	CHANNELS 6 Xposition Yposition Zposition Zrotation Yrotation Xrotation 
	JOINT LeftUpLeg
	{
		OFFSET 0.069520 -0.091406 -0.006815
		CHANNELS 3 Zrotation Yrotation Xrotation
		JOINT LeftLeg
		{
			OFFSET 0.034277 -0.375199 -0.004496
			CHANNELS 3 Zrotation Yrotation Xrotation
			JOINT LeftFoot
			{
				OFFSET -0.013596 -0.397961 -0.043693
				CHANNELS 3 Zrotation Yrotation Xrotation
				JOINT LeftToe
				{
					OFFSET 0.026358 -0.055791 0.119288
					CHANNELS 3 Zrotation Yrotation Xrotation
					End Site
					{
						OFFSET 0.000000 0.000000 0.000000
					}
				}
			}
		}
	}
	JOINT RightUpLeg
	{
		OFFSET -0.067670 -0.090522 -0.004320
		CHANNELS 3 Zrotation Yrotation Xrotation
		JOINT RightLeg
		{
			OFFSET -0.038290 -0.382569 -0.008850
			CHANNELS 3 Zrotation Yrotation Xrotation
			JOINT RightFoot
			{
				OFFSET 0.015774 -0.398415 -0.042312
				CHANNELS 3 Zrotation Yrotation Xrotation
				JOINT RightToe
				{
					OFFSET -0.025372 -0.048144 0.123348
					CHANNELS 3 Zrotation Yrotation Xrotation
					End Site
					{
						OFFSET 0.000000 0.000000 0.000000
					}
				}
			}
		}
	}
	JOINT Spine
	{
		OFFSET -0.002533 0.108963 -0.026696
		CHANNELS 3 Zrotation Yrotation Xrotation
		JOINT Spine1
		{
			OFFSET 0.005487 0.135180 0.001092
			CHANNELS 3 Zrotation Yrotation Xrotation
			JOINT Spine2
			{
				OFFSET 0.001457 0.052922 0.025425
				CHANNELS 3 Zrotation Yrotation Xrotation
				JOINT Neck
				{
					OFFSET -0.002778 0.213870 -0.042857
					CHANNELS 3 Zrotation Yrotation Xrotation
					JOINT Head
					{
						OFFSET 0.005152 0.064970 0.051349
						CHANNELS 3 Zrotation Yrotation Xrotation
						End Site
						{
							OFFSET 0.000000 0.000000 0.000000
						}
					}
				}
				JOINT LeftShoulder
				{
					OFFSET 0.078845 0.121749 -0.034090
					CHANNELS 3 Zrotation Yrotation Xrotation
					JOINT LeftArm
					{
						OFFSET 0.090977 0.030469 -0.008868
						CHANNELS 3 Zrotation Yrotation Xrotation
						JOINT LeftForeArm
						{
							OFFSET 0.259612 -0.012772 -0.027456
							CHANNELS 3 Zrotation Yrotation Xrotation
							JOINT LeftHand
							{
								OFFSET 0.249234 0.008986 -0.001171
								CHANNELS 3 Zrotation Yrotation Xrotation
								End Site
								{
									OFFSET 0.000000 0.000000 0.000000
								}
							}
						}
					}
				}
				JOINT RightShoulder
				{
					OFFSET -0.081759 0.118833 -0.038615
					CHANNELS 3 Zrotation Yrotation Xrotation
					JOINT RightArm
					{
						OFFSET -0.096012 0.032551 -0.009143
						CHANNELS 3 Zrotation Yrotation Xrotation
						JOINT RightForeArm
						{
							OFFSET -0.253742 -0.013329 -0.021401
							CHANNELS 3 Zrotation Yrotation Xrotation
							JOINT RightHand
							{
								OFFSET -0.255298 0.007772 -0.005559
								CHANNELS 3 Zrotation Yrotation Xrotation
								End Site
								{
									OFFSET 0.000000 0.000000 0.000000
								}
							}
						}
					}
				}
			}
		}
	}
}
MOTION
Frames: 10
Frame Time: 0.050000
-0.135460 0.958865 -0.080726 -0.911383 3.174866 16.127324 4.849657 -1.470210 -22.947175 2.387649 -0.473286 4.149452 2.727573 9.969534 14.070635 0.000000 0.000000 0.000000 -0.384301 1.911036 -20.414489 -6.033333 0.613656 -0.095476 6.283560 5.953545 15.722006 0.000000 0.000000 0.000000 2.571955 -1.136324 13.843439 0.103622 0.035124 -2.649911 -9.911110 7.627556 -1.220423 16.731671 -4.129737 -28.695437 0.000000 0.000000 0.000000 7.743833 -42.684842 12.805846 19.373056 -47.574527 -11.422467 24.007813 -3.412245 -0.509706 0.000000 0.000000 0.000000 -5.465765 34.724179 12.751335 -12.050636 52.276326 -6.732853 -26.743037 -5.178487 1.917544 0.000000 0.000000 0.000000 
-0.136504 0.959695 -0.080092 -0.824950 2.633925 16.475956 4.829572 -1.472463 -23.357680 2.462502 -0.508961 4.584549 2.788753 10.022442 14.189668 0.000000 0.000000 0.000000 0.023228 2.003111 -20.711832 -6.509812 0.641634 -0.248204 6.117737 5.486864 15.839596 0.000000 0.000000 0.000000 2.315369 -1.089237 13.957999 0.440917 -0.118067 -2.410763 -10.127321 7.065014 -1.543464 16.680373 -4.171560 -28.601253 0.000000 0.000000 0.000000 7.694624 -42.769720 12.910943 20.638501 -45.781917 -11.182282 21.998143 -1.010194 -0.058280 0.000000 0.000000 0.000000 -5.235938 35.055239 12.935259 -13.486219 51.660132 -7.339385 -26.555935 -4.727404 1.795673 0.000000 0.000000 0.000000 
-0.137070 0.960603 -0.079375 -0.788887 2.068149 16.692569 4.710085 -1.461057 -23.309276 2.632137 -0.525056 4.455569 2.968712 10.265832 14.374606 0.000000 0.000000 0.000000 0.270454 2.062647 -20.844527 -6.901191 0.629445 -0.700588 6.423428 5.550889 16.606963 0.000000 0.000000 0.000000 2.181497 -1.067510 14.147964 0.387750 -0.096187 -2.411912 -9.911229 6.735876 -1.545199 16.534474 -4.157004 -28.601343 0.000000 0.000000 0.000000 8.027737 -42.997063 12.944136 21.938318 -44.000153 -10.952778 19.818890 0.882597 0.219867 0.000000 0.000000 0.000000 -5.607187 35.049333 12.757769 -14.832387 51.029816 -7.840849 -25.159108 -4.531762 1.627121 0.000000 0.000000 0.000000 
-0.137244 0.961126 -0.078571 -0.659966 1.839404 16.871733 4.714522 -1.459924 -23.480589 2.787872 -0.559689 4.668011 2.484249 9.504375 14.452718 0.000000 0.000000 0.000000 0.286130 2.065409 -20.782779 -7.228068 0.619147 -1.071944 6.644132 5.839593 16.752064 0.000000 0.000000 0.000000 2.082931 -1.060148 14.361242 0.464596 -0.129170 -2.410045 -9.983942 6.228548 -1.676972 16.297404 -4.045910 -28.778610 0.000000 0.000000 0.000000 8.038451 -43.206269 13.054859 22.985185 -42.932674 -10.855239 18.060132 1.949440 0.336688 0.000000 0.000000 0.000000 -5.471352 35.305060 12.875858 -15.922985 50.048694 -8.171880 -23.533123 -4.224985 1.433615 0.000000 0.000000 0.000000 
-0.137170 0.961136 -0.077897 -0.579603 1.821192 16.893554 4.581530 -1.471880 -23.337399 2.839984 -0.559584 4.545261 2.479686 9.459597 14.293782 0.000000 0.000000 0.000000 0.179894 2.040198 -20.653893 -7.289044 0.598146 -1.323477 6.800473 6.044108 16.904834 0.000000 0.000000 0.000000 2.134364 -1.058920 14.206654 0.416026 -0.114406 -2.248317 -9.993458 5.959161 -1.437585 16.323655 -4.058689 -28.950141 0.000000 0.000000 0.000000 8.154336 -43.336287 13.070396 23.581233 -42.544201 -10.877885 17.160200 2.806936 0.414744 0.000000 0.000000 0.000000 -5.532502 35.489671 12.887201 -16.744913 49.177106 -8.353569 -21.621081 -4.447635 1.319563 0.000000 0.000000 0.000000 
-0.137024 0.961154 -0.077529 -0.385704 2.142394 16.923196 4.315829 -1.522595 -23.234703 2.913235 -0.568644 4.524624 2.284601 9.072034 13.737982 0.000000 0.000000 0.000000 -0.044997 1.999574 -20.630469 -7.490581 0.617346 -1.340818 6.953727 6.338872 17.002547 0.000000 0.000000 0.000000 2.376799 -1.117173 14.287202 0.437426 -0.115891 -2.448205 -10.355474 5.854548 -1.104324 16.297820 -4.089027 -28.772300 0.000000 0.000000 0.000000 8.071266 -44.115061 13.310104 23.846347 -42.112122 -10.823054 16.688599 3.136618 0.436808 0.000000 0.000000 0.000000 -5.093155 35.733934 13.133186 -16.946000 48.322790 -8.264281 -20.219769 -4.395806 1.201867 0.000000 0.000000 0.000000 
-0.136861 0.961041 -0.077447 -0.276636 2.413855 17.072918 4.128532 -1.572111 -23.352529 2.987409 -0.578301 4.514256 2.211036 8.922151 13.437168 0.000000 0.000000 0.000000 -0.250379 1.979001 -20.785982 -7.428590 0.619577 -1.286043 6.897356 6.290962 17.002749 0.000000 0.000000 0.000000 2.583570 -1.154053 14.168828 0.479948 -0.147003 -2.102158 -10.764129 5.905937 -1.159823 16.418702 -4.149820 -28.617992 0.000000 0.000000 0.000000 8.218802 -44.960388 13.509613 23.832062 -42.104377 -10.840397 16.502076 3.213498 0.438875 0.000000 0.000000 0.000000 -4.785348 35.927806 13.354881 -16.804969 47.910419 -8.109928 -18.947481 -4.823624 1.169261 0.000000 0.000000 0.000000 
-0.136737 0.961043 -0.077497 -0.119400 2.812563 17.160060 3.874338 -1.625159 -23.272648 3.052464 -0.568268 4.220139 2.105378 8.748170 13.185622 0.000000 0.000000 0.000000 -0.512156 1.943850 -20.909702 -7.496048 0.650225 -1.082138 6.969215 6.559679 16.891662 0.000000 0.000000 0.000000 2.742108 -1.196605 14.216268 0.658866 -0.222906 -2.114541 -11.185179 5.980785 -1.043464 16.608419 -4.192636 -28.661262 0.000000 0.000000 0.000000 7.879536 -45.769961 13.831714 23.410045 -42.388694 -10.835265 16.431086 3.675280 0.487046 0.000000 0.000000 0.000000 -4.184339 36.172599 13.708748 -16.534810 47.350063 -7.887682 -17.325392 -4.839135 1.046606 0.000000 0.000000 0.000000 
-0.136705 0.961025 -0.077583 -0.110616 3.141311 17.209032 3.739780 -1.657589 -23.221123 3.277866 -0.591865 4.115325 1.931228 8.419797 12.820641 0.000000 0.000000 0.000000 -0.495210 1.937821 -20.943989 -7.485813 0.668067 -0.929935 6.705561 6.273339 16.630894 0.000000 0.000000 0.000000 2.806025 -1.226288 14.345474 0.629318 -0.218104 -1.923246 -11.343405 5.953052 -1.073277 16.651435 -4.191118 -28.655470 0.000000 0.000000 0.000000 7.132023 -46.566415 14.297715 22.975235 -42.902047 -10.857897 16.153208 4.108275 0.527244 0.000000 0.000000 0.000000 -3.492863 36.531111 14.137179 -16.455808 47.196220 -7.848685 -15.709036 -5.185480 0.962995 0.000000 0.000000 0.000000 
-0.136762 0.960915 -0.077683 -0.170240 3.199451 16.993852 3.833713 -1.612887 -22.741687 3.294279 -0.569431 3.743701 1.774842 8.120130 12.635059 0.000000 0.000000 0.000000 -0.613494 1.887852 -20.540488 -7.305835 0.618083 -1.261394 6.954988 6.681244 16.740612 0.000000 0.000000 0.000000 2.986158 -1.249750 14.211998 0.456860 -0.157251 -1.601735 -11.542706 6.322400 -1.409391 16.723556 -4.200832 -28.513584 0.000000 0.000000 0.000000 5.337443 -47.587728 15.145815 21.883023 -43.632346 -10.708923 16.089169 4.564539 0.578007 0.000000 0.000000 0.000000 -1.718116 36.991097 15.052990 -15.453910 47.187873 -7.522296 -15.096203 -5.281162 0.926421 0.000000 0.000000 0.000000 
